<?xml version="1.0" ?><svg data-name="Adobe Folder 2020" id="Adobe_Folder_2020" viewBox="0 0 240 210" xmlns="http://www.w3.org/2000/svg"><defs><style>.cls-1{fill:#1f0040;}.cls-2{fill:#d291ff;}.cls-3{fill:#ddd4f5;fill-rule:evenodd;}</style></defs><title/><g data-name="After Effects" id="After_Effects"><path class="cls-1" d="M232.5,52.5a15,15,0,0,0-15-15H7.5v150a15,15,0,0,0,15,15h195a15,15,0,0,0,15-15Z"/><path class="cls-2" d="M217.5,30H137.63A3.41,3.41,0,0,1,135,28.88L111.75,5.63A18.2,18.2,0,0,0,98.63,0H22.5A22.57,22.57,0,0,0,0,22.5v165A22.57,22.57,0,0,0,22.5,210h195A22.57,22.57,0,0,0,240,187.5V52.5A22.57,22.57,0,0,0,217.5,30Zm15,157.5a15,15,0,0,1-15,15H22.5a15,15,0,0,1-15-15V37.5h210a15,15,0,0,1,15,15Z" data-name="Path 4" id="Path_4"/><path class="cls-3" d="M84.51,136.28,79,157.19c-.12.57-.35.79-1,.79H67.64c-.69,0-.81-.23-.69-1L86.81,87.41a20.88,20.88,0,0,0,.7-5.74c0-.46.23-.69.58-.69h14.66c.46,0,.7.12.81.69l22.29,75.39c.12.57,0,.92-.57.92H113.73c-.58,0-.93-.22-1-.68l-5.78-21Zm19.64-11.36c-2-7.74-6.71-24.71-8.44-32.91h-.12c-1.5,8.2-5.29,22-8.18,32.9Zm37.52,7.16c.12,9.47,4.62,15.82,15.25,15.82a27.31,27.31,0,0,0,11.42-2.16c.46-.23.81-.12.81.46V155a1.51,1.51,0,0,1-.7,1.38c-3.69,1.85-8.3,2.66-14.07,2.66C135.9,159,129,145.39,129,130.14c0-16.51,8.55-30,23.56-30,15.25,0,20.56,12.82,20.56,23.21a34.37,34.37,0,0,1-.58,7.39,1,1,0,0,1-.92.9,99.19,99.19,0,0,1-11.67.46Zm14.21-9.62a36.39,36.39,0,0,0,5.2-.12c0-.46.11-.86.11-1.2,0-3.82-1.84-10.81-9.12-10.81-6.7,0-9.59,5.89-10.28,12.13Z"/></g></svg>