<?xml version="1.0" ?><!DOCTYPE svg  PUBLIC '-//W3C//DTD SVG 1.1//EN'  'http://www.w3.org/Graphics/SVG/1.1/DTD/svg11.dtd'><svg height="100%" style="fill-rule:evenodd;clip-rule:evenodd;stroke-linejoin:round;stroke-miterlimit:1.41421;" version="1.1" viewBox="0 0 411 342" width="100%" xml:space="preserve" xmlns="http://www.w3.org/2000/svg" xmlns:serif="http://www.serif.com/" xmlns:xlink="http://www.w3.org/1999/xlink"><rect height="341.37" id="_8.-CPanel" style="fill:none;" width="409.615" x="0.453" y="0.536"/><path d="M358.788,59.817c0,-8.279 -6.721,-15 -15,-15l-288.547,0c-8.279,0 -15,6.721 -15,15l0,180.679c0,8.279 6.721,15 15,15l288.547,0c8.279,0 15,-6.721 15,-15l0,-180.679Z" id="Rounded-Rectangle-1-copy" style="fill:#cce6ff;fill-opacity:0.258824;"/><path d="M349.252,47.951c0,-8.279 -6.721,-15 -15,-15l-288.547,0c-8.279,0 -15,6.721 -15,15l0,180.68c0,8.278 6.721,15 15,15l288.547,0c8.279,0 15,-6.722 15,-15l0,-180.68Z" id="Rounded-Rectangle-1" style="fill:url(#_Linear1);"/><path d="M332.583,58.218c0,-6.071 -4.929,-11 -11,-11l-265.384,0c-4.415,0 -8,3.585 -8,8l0,150.378l284.384,0l0,-147.378Z" id="Rounded-Rectangle-2" style="fill:url(#_Linear2);"/><path d="M214.248,223.641c0,-3.312 -2.689,-6 -6,-6l-35.033,0c-3.311,0 -6,2.688 -6,6l0,1.765c0,3.312 2.689,6 6,6l35.033,0c3.311,0 6,-2.688 6,-6l0,-1.765Z" id="Rounded-Rectangle-3" style="fill:#e5f1ff;"/><path d="M209.141,120.865l0,7.858l-10.935,4.861c-0.43,2.268 -1.026,4.477 -1.771,6.617l7.039,9.676l-3.929,6.805l-11.91,-1.26c-1.492,1.726 -3.107,3.341 -4.833,4.833l1.26,11.913l-6.804,3.929l-9.674,-7.039c-2.139,0.745 -4.349,1.34 -6.617,1.771l-4.86,10.936l-7.857,0l-4.86,-10.937c-2.268,-0.43 -4.477,-1.026 -6.617,-1.77l-9.673,7.039l-6.805,-3.929l1.26,-11.912c-1.726,-1.492 -3.342,-3.108 -4.834,-4.834l-11.909,1.26l-3.928,-6.805l7.037,-9.675c-0.744,-2.14 -1.34,-4.35 -1.77,-6.618l-10.935,-4.861l0,-7.858l10.934,-4.86c0.432,-2.269 1.026,-4.479 1.771,-6.62l-7.037,-9.673l3.928,-6.806l11.915,1.261c1.491,-1.725 3.103,-3.343 4.828,-4.834l-1.26,-11.912l6.805,-3.929l9.674,7.04c2.14,-0.745 4.349,-1.341 6.616,-1.772l4.86,-10.936l7.857,0l4.86,10.936c2.268,0.431 4.477,1.027 6.616,1.772l9.675,-7.04l6.804,3.929l-1.26,11.912c1.725,1.491 3.337,3.109 4.829,4.834l11.914,-1.261l3.929,6.806l-7.037,9.673c0.745,2.141 1.339,4.351 1.77,6.62l10.934,4.86Zm-56.962,-13.764c-9.77,0 -17.691,7.922 -17.691,17.693c0,9.772 7.921,17.693 17.691,17.693c9.77,0 17.69,-7.921 17.69,-17.693c0,-9.771 -7.92,-17.693 -17.69,-17.693Z" id="Shape-3" style="fill:#0bbc00;"/><path d="M215.114,180.104l2.229,-3.24c-1.686,-1.959 -3.018,-4.169 -3.971,-6.6l-3.751,0.687c-0.347,0.063 -0.704,-0.014 -0.992,-0.214c-0.292,-0.202 -0.491,-0.507 -0.554,-0.852l-1.4,-7.56c-0.132,-0.723 0.345,-1.403 1.063,-1.54l4.04,-0.74c0.181,-2.537 0.776,-5.005 1.778,-7.362l-3.243,-2.232c-0.289,-0.198 -0.489,-0.506 -0.554,-0.852c-0.064,-0.347 0.013,-0.703 0.213,-0.991l4.362,-6.313c0.065,-0.098 0.143,-0.185 0.231,-0.26c0.444,-0.376 1.104,-0.424 1.608,-0.076l3.404,2.343c1.987,-1.703 4.08,-3.012 6.457,-3.985l-0.711,-3.81c-0.066,-0.345 0.009,-0.703 0.206,-0.992c0.196,-0.29 0.505,-0.487 0.851,-0.55l7.572,-1.375c0.72,-0.13 1.412,0.345 1.546,1.067l0.735,3.938c2.561,0.159 5.12,0.752 7.512,1.736l2.103,-3.054c0.197,-0.289 0.506,-0.489 0.853,-0.552c0.347,-0.063 0.702,0.013 0.992,0.215l6.334,4.362c0.603,0.416 0.757,1.24 0.347,1.842l-2.157,3.142c1.768,1.959 3.174,4.192 4.197,6.657l3.455,-0.634c0.345,-0.064 0.704,0.012 0.995,0.212c0.29,0.198 0.49,0.505 0.554,0.852l1.398,7.564c0.137,0.726 -0.344,1.412 -1.059,1.541l-3.577,0.649c-0.145,2.648 -0.754,5.243 -1.816,7.739l2.805,1.932c0.604,0.415 0.756,1.24 0.343,1.841l-4.349,6.321c-0.423,0.601 -1.238,0.751 -1.843,0.336l-2.981,-2.05c-2.053,1.709 -4.291,3.138 -6.806,4.118l0.633,3.381c0.066,0.346 -0.007,0.705 -0.206,0.992c-0.203,0.29 -0.508,0.49 -0.853,0.551l-7.564,1.378c-0.72,0.13 -1.411,-0.348 -1.547,-1.065l-0.685,-3.681c-2.63,-0.192 -5.185,-0.83 -7.624,-1.905l-2.035,2.967c-0.205,0.294 -0.504,0.487 -0.85,0.551c-0.345,0.065 -0.705,-0.013 -0.993,-0.213l-6.352,-4.375c-0.604,-0.415 -0.758,-1.238 -0.343,-1.841Zm14.439,-10.474c3.555,2.455 8.327,2.231 11.604,-0.542c0.642,-0.543 1.212,-1.174 1.693,-1.872c2.988,-4.344 1.879,-10.308 -2.467,-13.304c-3.56,-2.453 -8.341,-2.225 -11.625,0.554c-0.642,0.543 -1.212,1.174 -1.694,1.874c-1.45,2.104 -1.987,4.647 -1.516,7.164c0.471,2.503 1.895,4.681 4.005,6.126Zm7.137,-39.768c-0.187,-0.294 -0.251,-0.656 -0.178,-0.998l1.175,-5.253c-3.104,-1.57 -5.894,-3.676 -8.314,-6.283l-4.421,2.79c-0.616,0.391 -1.436,0.204 -1.828,-0.414l-5.332,-8.384c-0.39,-0.621 -0.183,-1.443 0.409,-1.828l4.725,-2.987c-1.096,-3.281 -1.596,-6.692 -1.489,-10.163l-5.25,-1.184c-0.344,-0.079 -0.644,-0.287 -0.832,-0.586c-0.188,-0.297 -0.256,-0.658 -0.177,-1.001l2.162,-9.669c0.162,-0.705 0.864,-1.159 1.583,-0.999l5.482,1.237c1.523,-3.093 3.564,-5.864 6.081,-8.257l-2.851,-4.498c-0.359,-0.565 -0.238,-1.297 0.258,-1.716c0.047,-0.04 0.098,-0.077 0.15,-0.109l8.373,-5.292c0.616,-0.388 1.436,-0.207 1.828,0.411l2.946,4.616c3.266,-1.126 6.784,-1.674 10.293,-1.601l1.113,-4.98c0.159,-0.708 0.863,-1.161 1.577,-0.997l9.692,2.183c0.719,0.161 1.166,0.873 1.01,1.582l-1.136,5.103c3.236,1.546 6.123,3.639 8.613,6.238l4.092,-2.584c0.617,-0.392 1.435,-0.206 1.827,0.412l5.336,8.378c0.191,0.297 0.251,0.656 0.177,0.998c-0.079,0.342 -0.283,0.637 -0.583,0.827l-4.226,2.674c1.196,3.4 1.747,6.963 1.638,10.625l4.597,1.039c0.345,0.078 0.644,0.287 0.833,0.585c0.188,0.296 0.251,0.656 0.176,0.999l-2.154,9.668c-0.164,0.713 -0.869,1.16 -1.582,0.999l-4.852,-1.09c-1.578,3.224 -3.737,6.106 -6.43,8.588l2.562,4.021c0.187,0.3 0.254,0.66 0.175,0.999c-0.074,0.345 -0.271,0.633 -0.583,0.83l-8.375,5.296c-0.298,0.185 -0.656,0.248 -0.999,0.17c-0.343,-0.08 -0.644,-0.287 -0.832,-0.587l-2.756,-4.335c-3.401,1.12 -6.926,1.603 -10.505,1.446l-1.08,4.852c-0.076,0.343 -0.279,0.64 -0.582,0.829c-0.299,0.186 -0.657,0.25 -0.999,0.172l-9.702,-2.185c-0.346,-0.078 -0.646,-0.289 -0.835,-0.587Zm11.575,-20.205c3.929,0.885 7.944,-0.098 11.02,-2.701c2.121,-1.795 3.566,-4.183 4.172,-6.906c1.525,-6.85 -2.811,-13.674 -9.667,-15.221c-3.937,-0.887 -7.959,0.099 -11.034,2.701c-2.124,1.797 -3.567,4.187 -4.173,6.91c-1.525,6.843 2.821,13.671 9.682,15.217Z" id="Shape-4" style="fill:#cce6ff;"/><path d="M155.744,243.542l67.681,0l0,36.893c0,0 -0.121,11.277 18.354,19.599c-8.505,1.932 -64.24,0 -64.24,0l0,-0.282c-0.05,0.003 -31.651,1.921 -40.15,0c18.476,-8.281 18.355,-19.501 18.355,-19.501l0,-36.709Z" id="Shape-2-copy" style="fill:url(#_Linear3);"/><path d="M242.926,303.146c0,-4.139 -3.36,-7.5 -7.5,-7.5l-91.684,0c-4.139,0 -7.5,3.361 -7.5,7.5l0,2.208c0,4.139 3.361,7.5 7.5,7.5l91.684,0c4.14,0 7.5,-3.361 7.5,-7.5l0,-2.208Z" id="Rounded-Rectangle-5" style="fill:#cce6ff;"/><path d="M321.261,209.721c6.501,0 13.005,0 19.506,0c4.252,0 8.763,-0.222 12.265,0.585c8.486,1.954 15.111,6.222 19.682,12.106c2.425,3.123 4.53,6.791 5.84,10.995c0.588,1.89 0.966,3.863 1.343,5.966c0.922,5.144 -0.333,10.637 -1.46,14.445c-3.37,11.392 -10.213,19.025 -20.791,23.16c-8.047,3.146 -21.529,2.096 -32.589,2.106c0,-0.02 0,-0.039 0,-0.059c1.09,-4.035 2.18,-8.071 3.27,-12.106c0.594,-1.983 0.85,-4.078 1.811,-5.673c0.899,-1.491 2.235,-2.738 3.738,-3.626c2.28,-1.348 6.101,-1.112 9.753,-1.111c1.051,-0.02 2.103,-0.039 3.154,-0.059c3.867,-0.698 6.77,-2.581 8.526,-5.38c0.753,-1.2 1.308,-2.669 1.694,-4.211c0.703,-2.805 -0.145,-5.735 -0.993,-7.662c-3.698,-8.403 -12.068,-6.983 -23.711,-6.959c-4.497,16.744 -8.995,33.494 -13.491,50.238c-1.917,6.385 -2.405,14.569 -7.534,17.779c-2.446,1.531 -6.523,1.287 -10.571,1.287c-3.407,0 -6.814,0 -10.221,0c5.918,-22.144 11.837,-44.295 17.755,-66.439c1.226,-4.6 2.453,-9.202 3.679,-13.802c0.907,-3.038 1.332,-6.025 3.037,-8.188c1.061,-1.345 2.738,-2.473 4.556,-3.041c0.584,-0.117 1.168,-0.234 1.752,-0.351Zm-45.087,22.575c9.071,0 18.144,0 27.215,0c0,0.02 0,0.039 0,0.059c-0.973,3.664 -1.946,7.33 -2.92,10.995c-1.519,5.091 -1.889,8.75 -6.541,10.761c-3.229,1.396 -9.197,0.761 -13.608,0.76c-1.148,0 -2.297,0 -3.445,0c-5.633,0.94 -9.308,4.056 -10.63,9.241c-0.549,2.153 -0.294,4.758 0.292,6.609c1.531,4.828 4.811,7.512 10.279,8.421c3.679,0.612 8.779,-0.966 11.155,0.878c2.104,1.633 1.806,4.01 0.993,6.725c-1.343,4.952 -2.687,9.904 -4.03,14.855c-4.808,0.055 -10.239,0.354 -14.308,-0.526c-12.727,-2.753 -21.004,-10.361 -25.347,-21.522c-1.997,-5.132 -2.81,-13.283 -1.227,-19.593c0.914,-3.64 1.989,-7.211 3.68,-10.117c4.352,-7.481 10.244,-12.432 18.805,-15.733c1.905,-0.734 4.055,-1.124 6.249,-1.52c1.129,-0.098 2.259,-0.195 3.388,-0.293Z" id="Shape-2" style="fill:#0084ff;"/><path d="M345.623,196.533l0.451,0.002l0.458,0.004l0.465,0.006l0.47,0.009l0.477,0.012l0.473,0.015l0.256,0.009l0.242,0.01l0.249,0.012l0.25,0.012l0.253,0.014l0.252,0.014l0.252,0.016l0.259,0.018l0.256,0.019l0.259,0.021l0.267,0.023l0.262,0.024l0.262,0.025l0.271,0.028l0.27,0.03l0.27,0.032l0.278,0.035l0.274,0.036l0.278,0.039l0.281,0.042l0.28,0.043l0.286,0.048l0.289,0.05l0.288,0.053l0.293,0.056l0.299,0.061l0.295,0.064l0.278,0.062l0.28,0.065l0.258,0.062l0.259,0.063l0.259,0.064l0.255,0.064l0.259,0.067l0.259,0.069l0.257,0.069l0.253,0.069l0.252,0.071l0.257,0.073l0.253,0.073l0.255,0.075l0.25,0.076l0.252,0.077l0.254,0.079l0.246,0.078l0.251,0.081l0.248,0.082l0.249,0.083l0.252,0.085l0.243,0.084l0.245,0.086l0.247,0.088l0.247,0.09l0.243,0.089l0.243,0.091l0.245,0.093l0.242,0.093l0.241,0.095l0.243,0.097l0.237,0.095l0.239,0.098l0.242,0.101l0.238,0.1l0.237,0.101l0.236,0.103l0.237,0.104l0.235,0.105l0.235,0.107l0.234,0.107l0.23,0.108l0.233,0.11l0.232,0.111l0.232,0.112l0.231,0.114l0.227,0.113l0.233,0.117l0.225,0.116l0.225,0.117l0.228,0.119l0.227,0.121l0.223,0.12l0.222,0.121l0.228,0.126l0.221,0.124l0.217,0.123l0.219,0.126l0.222,0.129l0.221,0.13l0.22,0.132l0.217,0.131l0.212,0.13l0.218,0.134l0.211,0.133l0.214,0.135l0.216,0.138l0.208,0.136l0.215,0.141l0.214,0.142l0.206,0.139l0.205,0.139l0.211,0.146l0.207,0.144l0.204,0.144l0.206,0.147l0.201,0.145l0.204,0.149l0.206,0.152l0.202,0.151l0.195,0.148l0.199,0.152l0.199,0.154l0.202,0.158l0.195,0.155l0.191,0.152l0.196,0.159l0.196,0.16l0.194,0.161l0.191,0.16l0.191,0.161l0.185,0.159l0.191,0.165l0.19,0.167l0.186,0.165l0.186,0.166l0.185,0.168l0.183,0.168l0.179,0.166l0.184,0.172l0.185,0.175l0.176,0.169l0.179,0.173l0.176,0.173l0.175,0.173l0.181,0.181l0.173,0.175l0.174,0.178l0.173,0.179l0.168,0.176l0.171,0.181l0.17,0.182l0.167,0.181l0.17,0.187l0.167,0.185l0.162,0.181l0.164,0.185l0.162,0.185l0.163,0.188l0.161,0.19l0.159,0.188l0.158,0.189l0.157,0.19l0.156,0.191l0.157,0.193l0.158,0.198l0.148,0.188l0.148,0.189l0.159,0.205l0.148,0.195l0.148,0.194l0.15,0.201l0.15,0.201l0.149,0.202l0.146,0.202l0.151,0.208l0.147,0.206l0.141,0.201l0.147,0.209l0.146,0.212l0.142,0.208l0.144,0.211l0.143,0.215l0.144,0.217l0.141,0.216l0.139,0.215l0.14,0.217l0.141,0.224l0.14,0.224l0.136,0.22l0.134,0.219l0.137,0.227l0.136,0.227l0.135,0.229l0.133,0.229l0.132,0.23l0.134,0.236l0.129,0.23l0.128,0.232l0.131,0.239l0.128,0.238l0.127,0.24l0.127,0.243l0.122,0.236l0.123,0.241l0.124,0.248l0.121,0.244l0.119,0.245l0.121,0.251l0.119,0.252l0.115,0.247l0.117,0.254l0.114,0.253l0.113,0.254l0.112,0.256l0.111,0.257l0.111,0.264l0.106,0.257l0.106,0.257l0.106,0.266l0.105,0.266l0.103,0.267l0.099,0.261l0.1,0.267l0.1,0.274l0.097,0.27l0.095,0.271l0.095,0.276l0.093,0.277l0.09,0.273l0.088,0.273l0.088,0.28l0.083,0.268l0.079,0.265l0.077,0.265l0.074,0.258l0.071,0.253l0.07,0.26l0.07,0.261l0.065,0.254l0.061,0.24l0.062,0.247l0.062,0.256l0.057,0.243l0.057,0.243l0.055,0.242l0.053,0.237l0.055,0.25l0.097,0.456l0.094,0.457l0.09,0.452l0.086,0.447l0.083,0.437l0.079,0.428l0.077,0.42l0.078,0.435l0.035,0.196l0.034,0.202l0.033,0.201l0.031,0.2l0.03,0.203l0.031,0.213l0.027,0.2l0.028,0.214l0.047,0.387l0.043,0.398l0.038,0.393l0.034,0.398l0.029,0.388l0.024,0.388l0.02,0.387l0.016,0.382l0.012,0.383l0.007,0.376l0.004,0.377l0,0.37l-0.003,0.365l-0.007,0.371l-0.01,0.359l-0.013,0.359l-0.017,0.365l-0.019,0.353l-0.022,0.348l-0.025,0.347l-0.027,0.347l-0.03,0.341l-0.033,0.342l-0.034,0.335l-0.037,0.335l-0.04,0.335l-0.041,0.323l-0.043,0.324l-0.045,0.323l-0.046,0.316l-0.049,0.317l-0.05,0.317l-0.051,0.305l-0.053,0.305l-0.054,0.303l-0.056,0.305l-0.057,0.298l-0.057,0.291l-0.06,0.292l-0.059,0.285l-0.059,0.279l-0.062,0.285l-0.064,0.284l-0.061,0.266l-0.063,0.271l-0.065,0.272l-0.065,0.265l-0.064,0.258l-0.065,0.258l-0.066,0.257l-0.064,0.244l-0.068,0.256l-0.128,0.475l-0.131,0.467l-0.128,0.449l-0.129,0.438l-0.101,0.34l-0.104,0.339l-0.104,0.333l-0.107,0.337l-0.111,0.341l-0.111,0.335l-0.111,0.329l-0.115,0.332l-0.117,0.332l-0.118,0.331l-0.121,0.33l-0.122,0.328l-0.124,0.327l-0.127,0.326l-0.128,0.326l-0.131,0.325l-0.132,0.323l-0.134,0.322l-0.136,0.32l-0.139,0.32l-0.142,0.323l-0.14,0.312l-0.144,0.317l-0.147,0.315l-0.148,0.314l-0.152,0.316l-0.15,0.307l-0.154,0.309l-0.16,0.314l-0.159,0.309l-0.158,0.301l-0.162,0.305l-0.167,0.307l-0.166,0.302l-0.172,0.307l-0.171,0.299l-0.17,0.294l-0.175,0.297l-0.18,0.3l-0.179,0.294l-0.18,0.291l-0.184,0.293l-0.185,0.29l-0.19,0.292l-0.19,0.288l-0.192,0.285l-0.192,0.283l-0.198,0.286l-0.199,0.282l-0.197,0.275l-0.203,0.28l-0.207,0.28l-0.207,0.276l-0.208,0.273l-0.209,0.27l-0.212,0.269l-0.218,0.273l-0.216,0.267l-0.216,0.263l-0.223,0.266l-0.223,0.262l-0.222,0.258l-0.226,0.258l-0.232,0.26l-0.23,0.254l-0.231,0.251l-0.237,0.254l-0.235,0.249l-0.24,0.249l-0.239,0.245l-0.242,0.243l-0.245,0.243l-0.245,0.24l-0.251,0.242l-0.248,0.234l-0.249,0.233l-0.256,0.234l-0.254,0.23l-0.258,0.229l-0.256,0.225l-0.262,0.226l-0.264,0.225l-0.263,0.219l-0.265,0.219l-0.267,0.216l-0.269,0.215l-0.27,0.212l-0.273,0.211l-0.276,0.21l-0.273,0.205l-0.275,0.203l-0.283,0.205l-0.278,0.199l-0.279,0.197l-0.286,0.198l-0.286,0.195l-0.283,0.19l-0.29,0.191l-0.29,0.188l-0.288,0.185l-0.295,0.185l-0.294,0.181l-0.293,0.179l-0.293,0.176l-0.301,0.177l-0.299,0.173l-0.298,0.17l-0.302,0.169l-0.306,0.169l-0.304,0.165l-0.304,0.162l-0.307,0.161l-0.308,0.158l-0.308,0.156l-0.311,0.155l-0.314,0.154l-0.311,0.149l-0.312,0.148l-0.318,0.148l-0.315,0.143l-0.318,0.143l-0.319,0.14l-0.318,0.138l-0.322,0.136l-0.322,0.135l-0.324,0.133l-0.322,0.129l-0.342,0.135l-0.305,0.117l-0.317,0.119l-0.315,0.114l-0.319,0.111l-0.318,0.108l-0.315,0.104l-0.319,0.101l-0.313,0.097l-0.314,0.094l-0.315,0.091l-0.314,0.088l-0.314,0.086l-0.313,0.082l-0.31,0.079l-0.312,0.077l-0.313,0.074l-0.312,0.073l-0.308,0.068l-0.312,0.068l-0.312,0.065l-0.306,0.062l-0.311,0.061l-0.307,0.057l-0.307,0.057l-0.309,0.054l-0.31,0.053l-0.307,0.05l-0.307,0.048l-0.308,0.047l-0.306,0.045l-0.308,0.044l-0.303,0.041l-0.305,0.041l-0.308,0.039l-0.305,0.037l-0.306,0.036l-0.307,0.034l-0.301,0.032l-0.304,0.032l-0.306,0.03l-0.303,0.029l-0.307,0.028l-0.302,0.026l-0.302,0.025l-0.305,0.025l-0.303,0.022l-0.304,0.022l-0.302,0.021l-0.299,0.02l-0.303,0.018l-0.306,0.018l-0.301,0.017l-0.299,0.016l-0.311,0.015l-0.594,0.027l-0.601,0.024l-0.599,0.021l-0.6,0.018l-0.598,0.015l-0.595,0.012l-0.596,0.01l-0.593,0.008l-0.592,0.005l-0.59,0.004l-0.59,0.001l-0.586,0l-0.584,-0.001l-0.583,-0.003l-0.579,-0.004l-0.579,-0.006l-0.575,-0.006l-0.571,-0.007l-0.573,-0.008l-1.125,-0.018l-1.116,-0.018l-1.1,-0.02l-1.083,-0.018l-0.236,-0.004l-0.055,0.232l-0.089,0.363l-0.092,0.373l-0.097,0.381l-0.099,0.382l-0.102,0.39l-0.107,0.394l-0.111,0.399l-0.117,0.408l-0.121,0.411l-0.123,0.404l-0.071,0.227l-0.067,0.214l-0.067,0.205l-0.07,0.215l-0.074,0.222l-0.073,0.215l-0.077,0.223l-0.079,0.222l-0.077,0.214l-0.081,0.223l-0.084,0.224l-0.087,0.23l-0.09,0.23l-0.089,0.224l-0.093,0.23l-0.095,0.231l-0.099,0.232l-0.099,0.231l-0.105,0.237l-0.107,0.239l-0.107,0.231l-0.112,0.239l-0.115,0.238l-0.121,0.245l-0.124,0.247l-0.124,0.239l-0.125,0.237l-0.132,0.244l-0.141,0.254l-0.138,0.243l-0.146,0.252l-0.147,0.245l-0.152,0.249l-0.157,0.25l-0.156,0.241l-0.169,0.256l-0.172,0.254l-0.176,0.253l-0.178,0.248l-0.18,0.245l-0.192,0.255l-0.194,0.249l-0.196,0.247l-0.208,0.253l-0.211,0.25l-0.215,0.248l-0.221,0.247l-0.225,0.244l-0.228,0.241l-0.24,0.245l-0.239,0.237l-0.25,0.24l-0.258,0.241l-0.25,0.226l-0.264,0.231l-0.28,0.237l-0.271,0.221l-0.279,0.221l-0.289,0.221l-0.284,0.21l-0.297,0.211l-0.306,0.211l-0.306,0.202l-0.295,0.189l-0.215,0.132l-0.204,0.123l-0.189,0.11l-0.197,0.112l-0.207,0.114l-0.2,0.106l-0.199,0.104l-0.184,0.093l-0.2,0.099l-0.21,0.099l-0.185,0.086l-0.221,0.1l-0.355,0.153l-0.376,0.153l-0.375,0.144l-0.372,0.135l-0.36,0.123l-0.36,0.116l-0.355,0.107l-0.345,0.099l-0.343,0.091l-0.341,0.086l-0.331,0.078l-0.325,0.072l-0.326,0.068l-0.318,0.061l-0.311,0.057l-0.307,0.052l-0.304,0.047l-0.296,0.044l-0.296,0.04l-0.291,0.036l-0.283,0.033l-0.281,0.03l-0.276,0.027l-0.269,0.024l-0.271,0.023l-0.269,0.02l-0.259,0.017l-0.259,0.016l-0.256,0.014l-0.247,0.012l-0.247,0.011l-0.248,0.009l-0.24,0.008l-0.252,0.007l-0.451,0.01l-0.455,0.007l-0.443,0.004l-0.429,0.001l-0.422,0l-0.412,-0.002l-0.771,-0.005l-0.743,-0.005l-0.346,-0.001l-0.35,-0.001l-11.09,0l-4.936,0.063l-0.423,0.006l-0.893,0.016l-0.924,0.018l-0.95,0.018l-0.494,0.008l-0.499,0.008l-0.505,0.006l-0.512,0.005l-0.521,0.003l-0.525,0l-0.531,-0.001l-0.539,-0.005l-0.534,-0.008l-0.284,-0.005l-0.276,-0.007l-0.279,-0.007l-0.275,-0.009l-0.281,-0.009l-0.285,-0.011l-0.283,-0.012l-0.283,-0.014l-0.286,-0.015l-0.292,-0.016l-0.289,-0.018l-0.202,-0.014l-0.157,0l0.003,-0.011l-0.226,-0.016l-0.297,-0.024l-0.295,-0.025l-0.296,-0.027l-0.302,-0.03l-0.304,-0.031l-0.303,-0.034l-0.306,-0.037l-0.305,-0.038l-0.31,-0.042l-0.313,-0.045l-0.313,-0.047l-0.316,-0.051l-0.321,-0.054l-0.32,-0.058l-0.323,-0.061l-0.33,-0.066l-0.313,-0.066l-0.394,-0.087l-0.387,-0.087l-0.385,-0.091l-0.379,-0.092l-0.381,-0.094l-0.379,-0.098l-0.376,-0.099l-0.377,-0.102l-0.378,-0.106l-0.374,-0.108l-0.372,-0.109l-0.37,-0.112l-0.37,-0.115l-0.37,-0.118l-0.366,-0.12l-0.366,-0.123l-0.366,-0.126l-0.364,-0.128l-0.359,-0.13l-0.361,-0.133l-0.359,-0.135l-0.357,-0.138l-0.359,-0.142l-0.353,-0.143l-0.35,-0.145l-0.353,-0.149l-0.351,-0.151l-0.348,-0.154l-0.347,-0.156l-0.345,-0.159l-0.344,-0.161l-0.34,-0.163l-0.341,-0.167l-0.339,-0.169l-0.336,-0.171l-0.337,-0.175l-0.335,-0.177l-0.33,-0.179l-0.33,-0.181l-0.328,-0.184l-0.327,-0.187l-0.327,-0.19l-0.321,-0.191l-0.319,-0.193l-0.32,-0.197l-0.318,-0.199l-0.319,-0.204l-0.31,-0.202l-0.311,-0.206l-0.311,-0.21l-0.308,-0.211l-0.309,-0.216l-0.302,-0.215l-0.3,-0.217l-0.299,-0.22l-0.299,-0.224l-0.296,-0.226l-0.292,-0.227l-0.292,-0.23l-0.291,-0.234l-0.286,-0.233l-0.285,-0.236l-0.285,-0.241l-0.283,-0.243l-0.276,-0.242l-0.275,-0.244l-0.274,-0.247l-0.272,-0.25l-0.272,-0.255l-0.267,-0.253l-0.264,-0.255l-0.266,-0.261l-0.259,-0.258l-0.258,-0.262l-0.256,-0.265l-0.254,-0.265l-0.254,-0.271l-0.248,-0.269l-0.247,-0.271l-0.244,-0.274l-0.241,-0.275l-0.241,-0.278l-0.238,-0.279l-0.237,-0.284l-0.232,-0.282l-0.228,-0.281l-0.229,-0.287l-0.228,-0.292l-0.223,-0.289l-0.219,-0.288l-0.218,-0.292l-0.217,-0.296l-0.217,-0.301l-0.211,-0.297l-0.207,-0.296l-0.207,-0.301l-0.205,-0.303l-0.203,-0.305l-0.199,-0.305l-0.198,-0.308l-0.193,-0.305l-0.193,-0.31l-0.191,-0.313l-0.189,-0.313l-0.185,-0.313l-0.182,-0.312l-0.182,-0.319l-0.179,-0.318l-0.177,-0.319l-0.174,-0.322l-0.171,-0.32l-0.167,-0.319l-0.168,-0.325l-0.166,-0.327l-0.163,-0.328l-0.161,-0.328l-0.157,-0.327l-0.155,-0.328l-0.154,-0.331l-0.152,-0.334l-0.15,-0.335l-0.146,-0.332l-0.143,-0.333l-0.143,-0.338l-0.14,-0.336l-0.139,-0.341l-0.137,-0.341l-0.131,-0.333l-0.078,-0.204l-0.074,-0.195l-0.073,-0.196l-0.071,-0.196l-0.071,-0.196l-0.072,-0.205l-0.067,-0.195l-0.072,-0.212l-0.124,-0.377l-0.127,-0.399l-0.124,-0.403l-0.117,-0.399l-0.112,-0.394l-0.11,-0.403l-0.108,-0.408l-0.102,-0.404l-0.098,-0.404l-0.095,-0.408l-0.09,-0.404l-0.088,-0.409l-0.086,-0.418l-0.081,-0.414l-0.077,-0.41l-0.074,-0.414l-0.071,-0.419l-0.067,-0.42l-0.064,-0.419l-0.061,-0.421l-0.057,-0.42l-0.054,-0.425l-0.051,-0.43l-0.047,-0.426l-0.044,-0.425l-0.04,-0.431l-0.038,-0.434l-0.033,-0.431l-0.03,-0.431l-0.026,-0.435l-0.024,-0.44l-0.019,-0.436l-0.016,-0.435l-0.012,-0.444l-0.008,-0.44l-0.005,-0.44l-0.001,-0.44l0.003,-0.449l0.007,-0.444l0.011,-0.444l0.015,-0.435l0.01,-0.242l0.01,-0.224l0.011,-0.215l0.012,-0.224l0.014,-0.233l0.014,-0.223l0.016,-0.224l0.017,-0.233l0.017,-0.223l0.019,-0.224l0.02,-0.224l0.021,-0.224l0.023,-0.232l0.023,-0.224l0.025,-0.232l0.027,-0.232l0.026,-0.215l0.029,-0.232l0.03,-0.232l0.03,-0.223l0.033,-0.232l0.034,-0.232l0.036,-0.232l0.035,-0.223l0.038,-0.231l0.04,-0.232l0.039,-0.223l0.042,-0.232l0.044,-0.232l0.044,-0.231l0.047,-0.232l0.05,-0.24l0.049,-0.231l0.049,-0.222l0.053,-0.232l0.054,-0.231l0.055,-0.231l0.056,-0.225l0.1,-0.395l0.097,-0.38l0.1,-0.387l0.104,-0.392l0.106,-0.395l0.108,-0.396l0.11,-0.396l0.114,-0.403l0.117,-0.404l0.121,-0.407l0.125,-0.414l0.128,-0.415l0.132,-0.414l0.136,-0.418l0.14,-0.421l0.146,-0.424l0.145,-0.413l0.082,-0.229l0.08,-0.218l0.08,-0.217l0.079,-0.209l0.082,-0.218l0.087,-0.224l0.082,-0.209l0.087,-0.217l0.09,-0.223l0.091,-0.224l0.091,-0.217l0.091,-0.215l0.097,-0.224l0.097,-0.223l0.099,-0.222l0.101,-0.223l0.104,-0.228l0.104,-0.222l0.103,-0.216l0.11,-0.23l0.112,-0.227l0.11,-0.221l0.117,-0.229l0.114,-0.219l0.118,-0.226l0.126,-0.236l0.124,-0.225l0.125,-0.225l0.129,-0.228l0.125,-0.218l0.138,-0.236l0.135,-0.227l0.137,-0.23l0.135,-0.223l0.139,-0.228l0.142,-0.23l0.135,-0.216l0.142,-0.226l0.144,-0.225l0.141,-0.218l0.145,-0.223l0.145,-0.219l0.146,-0.22l0.148,-0.22l0.147,-0.215l0.151,-0.219l0.152,-0.218l0.152,-0.215l0.153,-0.215l0.15,-0.209l0.156,-0.215l0.161,-0.218l0.154,-0.207l0.158,-0.21l0.163,-0.214l0.157,-0.204l0.162,-0.207l0.166,-0.211l0.16,-0.201l0.165,-0.205l0.169,-0.208l0.166,-0.201l0.171,-0.206l0.171,-0.203l0.169,-0.198l0.17,-0.197l0.172,-0.198l0.177,-0.201l0.177,-0.198l0.175,-0.195l0.177,-0.194l0.178,-0.193l0.181,-0.194l0.18,-0.191l0.179,-0.188l0.188,-0.195l0.184,-0.187l0.186,-0.189l0.187,-0.188l0.185,-0.182l0.187,-0.184l0.191,-0.184l0.191,-0.183l0.189,-0.179l0.194,-0.181l0.198,-0.183l0.194,-0.177l0.193,-0.174l0.197,-0.177l0.199,-0.175l0.2,-0.174l0.197,-0.17l0.203,-0.173l0.206,-0.174l0.198,-0.165l0.201,-0.165l0.209,-0.17l0.207,-0.167l0.203,-0.161l0.21,-0.165l0.214,-0.166l0.206,-0.158l0.209,-0.158l0.213,-0.16l0.212,-0.157l0.213,-0.156l0.213,-0.154l0.218,-0.156l0.218,-0.154l0.214,-0.149l0.22,-0.152l0.221,-0.15l0.213,-0.144l0.223,-0.149l0.224,-0.147l0.219,-0.142l0.223,-0.143l0.223,-0.142l0.227,-0.142l0.229,-0.142l0.223,-0.137l0.224,-0.135l0.228,-0.136l0.232,-0.137l0.229,-0.134l0.23,-0.133l0.231,-0.131l0.235,-0.133l0.23,-0.127l0.228,-0.125l0.24,-0.131l0.235,-0.126l0.233,-0.123l0.237,-0.124l0.237,-0.122l0.236,-0.121l0.239,-0.12l0.239,-0.119l0.241,-0.119l0.244,-0.118l0.239,-0.115l0.237,-0.112l0.243,-0.115l0.247,-0.114l0.243,-0.11l0.242,-0.11l0.249,-0.111l0.245,-0.107l0.245,-0.107l0.251,-0.107l0.246,-0.105l0.245,-0.102l0.251,-0.104l0.253,-0.103l0.25,-0.101l0.25,-0.1l0.251,-0.098l0.279,-0.108l0.305,-0.116l0.325,-0.118l0.325,-0.115l0.323,-0.109l0.314,-0.103l0.31,-0.098l0.31,-0.094l0.306,-0.091l0.3,-0.085l0.294,-0.081l0.292,-0.078l0.289,-0.075l0.285,-0.072l0.281,-0.068l0.274,-0.065l0.272,-0.063l0.269,-0.06l0.264,-0.058l0.264,-0.056l0.255,-0.054l0.247,-0.05l0.259,-0.052l0.474,-0.093l0.469,-0.089l0.453,-0.084l0.435,-0.079l1.022,-0.185l4.563,-0.394l23.267,0l0.369,-1.386l0.117,-0.396l0.055,-0.194l0.057,-0.206l0.06,-0.22l0.064,-0.239l0.065,-0.245l0.144,-0.548l0.154,-0.586l0.086,-0.322l0.09,-0.332l0.097,-0.347l0.104,-0.365l0.111,-0.38l0.113,-0.371l0.069,-0.219l0.065,-0.205l0.067,-0.206l0.072,-0.214l0.073,-0.214l0.075,-0.215l0.083,-0.234l0.082,-0.223l0.085,-0.225l0.094,-0.245l0.093,-0.233l0.099,-0.244l0.103,-0.242l0.104,-0.243l0.116,-0.261l0.116,-0.252l0.118,-0.25l0.127,-0.26l0.135,-0.27l0.138,-0.267l0.142,-0.265l0.151,-0.273l0.152,-0.267l0.165,-0.28l0.17,-0.278l0.169,-0.268l0.185,-0.283l0.189,-0.281l0.193,-0.277l0.2,-0.277l0.214,-0.287l0.207,-0.266l0.143,-0.18l0.149,-0.182l0.15,-0.18l0.135,-0.158l0.152,-0.174l0.145,-0.164l0.151,-0.166l0.152,-0.163l0.145,-0.152l0.158,-0.164l0.147,-0.149l0.148,-0.146l0.162,-0.158l0.159,-0.151l0.143,-0.134l0.156,-0.143l0.162,-0.146l0.159,-0.14l0.164,-0.142l0.157,-0.133l0.158,-0.132l0.159,-0.129l0.168,-0.135l0.166,-0.13l0.154,-0.119l0.162,-0.123l0.174,-0.129l0.169,-0.124l0.165,-0.118l0.169,-0.118l0.169,-0.117l0.166,-0.111l0.165,-0.11l0.18,-0.117l0.179,-0.114l0.166,-0.104l0.175,-0.107l0.181,-0.109l0.169,-0.099l0.17,-0.098l0.189,-0.108l0.178,-0.098l0.178,-0.096l0.185,-0.099l0.173,-0.09l0.193,-0.098l0.188,-0.093l0.175,-0.085l0.189,-0.09l0.183,-0.085l0.184,-0.084l0.197,-0.088l0.192,-0.083l0.193,-0.081l0.194,-0.08l0.189,-0.075l0.195,-0.076l0.195,-0.075l0.198,-0.073l0.204,-0.073l0.193,-0.067l0.2,-0.068l0.208,-0.068l0.831,-0.264l3.74,-0.749l20.801,0l0.371,-0.001l0.365,-0.001l0.773,-0.006l0.797,-0.007l0.821,-0.007l0.425,-0.003l0.432,-0.002l0.439,-0.001l0.443,0Zm-69.449,35.763l-3.388,0.293l-0.41,0.074l-0.41,0.075l-0.408,0.075l-0.406,0.077l-0.404,0.079l-0.201,0.04l-0.2,0.041l-0.199,0.042l-0.199,0.043l-0.198,0.043l-0.198,0.044l-0.196,0.045l-0.196,0.047l-0.194,0.047l-0.194,0.049l-0.193,0.05l-0.191,0.051l-0.191,0.052l-0.189,0.054l-0.189,0.056l-0.187,0.057l-0.186,0.059l-0.184,0.06l-0.184,0.062l-0.182,0.064l-0.18,0.066l-0.18,0.068l-0.2,0.078l-0.199,0.078l-0.198,0.079l-0.197,0.079l-0.197,0.081l-0.195,0.08l-0.194,0.082l-0.194,0.082l-0.192,0.082l-0.192,0.083l-0.19,0.084l-0.19,0.085l-0.189,0.085l-0.187,0.086l-0.187,0.086l-0.186,0.087l-0.185,0.088l-0.184,0.088l-0.183,0.089l-0.183,0.09l-0.181,0.09l-0.18,0.091l-0.18,0.092l-0.178,0.092l-0.178,0.093l-0.177,0.093l-0.176,0.095l-0.175,0.095l-0.174,0.095l-0.173,0.096l-0.172,0.097l-0.172,0.098l-0.17,0.098l-0.17,0.099l-0.169,0.1l-0.168,0.101l-0.167,0.101l-0.166,0.101l-0.166,0.103l-0.164,0.103l-0.164,0.104l-0.163,0.105l-0.162,0.105l-0.161,0.106l-0.161,0.107l-0.159,0.107l-0.159,0.108l-0.158,0.109l-0.157,0.11l-0.156,0.11l-0.155,0.111l-0.155,0.112l-0.154,0.113l-0.153,0.113l-0.152,0.114l-0.151,0.115l-0.151,0.115l-0.15,0.117l-0.149,0.117l-0.148,0.117l-0.147,0.119l-0.147,0.119l-0.146,0.12l-0.145,0.121l-0.144,0.122l-0.144,0.122l-0.143,0.123l-0.142,0.124l-0.141,0.125l-0.14,0.125l-0.14,0.126l-0.139,0.127l-0.139,0.128l-0.137,0.129l-0.137,0.129l-0.136,0.13l-0.135,0.131l-0.135,0.132l-0.134,0.132l-0.133,0.134l-0.132,0.134l-0.132,0.135l-0.131,0.136l-0.13,0.136l-0.13,0.138l-0.129,0.138l-0.128,0.139l-0.128,0.14l-0.126,0.14l-0.127,0.142l-0.125,0.142l-0.125,0.144l-0.124,0.144l-0.123,0.144l-0.123,0.146l-0.122,0.147l-0.121,0.147l-0.121,0.148l-0.12,0.149l-0.119,0.15l-0.119,0.151l-0.118,0.152l-0.118,0.152l-0.116,0.154l-0.117,0.154l-0.115,0.155l-0.115,0.156l-0.114,0.157l-0.114,0.158l-0.113,0.158l-0.112,0.16l-0.112,0.16l-0.111,0.161l-0.111,0.163l-0.109,0.163l-0.11,0.164l-0.108,0.164l-0.109,0.166l-0.107,0.167l-0.107,0.167l-0.106,0.169l-0.106,0.169l-0.105,0.17l-0.105,0.172l-0.104,0.172l-0.103,0.173l-0.103,0.174l-0.102,0.175l-0.079,0.136l-0.078,0.138l-0.077,0.138l-0.076,0.14l-0.075,0.14l-0.075,0.142l-0.074,0.142l-0.072,0.143l-0.072,0.144l-0.071,0.145l-0.071,0.146l-0.069,0.146l-0.069,0.148l-0.068,0.148l-0.067,0.149l-0.067,0.149l-0.066,0.151l-0.065,0.151l-0.064,0.152l-0.064,0.153l-0.063,0.153l-0.062,0.154l-0.062,0.155l-0.061,0.155l-0.06,0.156l-0.059,0.157l-0.059,0.157l-0.059,0.158l-0.058,0.158l-0.057,0.159l-0.112,0.32l-0.111,0.322l-0.108,0.324l-0.106,0.326l-0.104,0.327l-0.102,0.33l-0.1,0.331l-0.098,0.332l-0.097,0.334l-0.095,0.335l-0.094,0.337l-0.092,0.337l-0.091,0.339l-0.089,0.339l-0.088,0.34l-0.088,0.34l-0.086,0.341l-0.036,0.149l-0.036,0.148l-0.035,0.15l-0.034,0.15l-0.033,0.151l-0.033,0.151l-0.031,0.152l-0.031,0.153l-0.03,0.153l-0.028,0.154l-0.029,0.154l-0.027,0.154l-0.026,0.156l-0.026,0.155l-0.025,0.157l-0.023,0.156l-0.024,0.157l-0.022,0.158l-0.021,0.158l-0.021,0.158l-0.02,0.159l-0.019,0.159l-0.018,0.16l-0.018,0.16l-0.016,0.16l-0.016,0.16l-0.015,0.161l-0.014,0.162l-0.014,0.161l-0.013,0.162l-0.012,0.162l-0.011,0.162l-0.01,0.162l-0.01,0.163l-0.009,0.163l-0.008,0.163l-0.007,0.163l-0.007,0.164l-0.011,0.327l-0.008,0.327l-0.005,0.328l-0.003,0.329l0.001,0.328l0.003,0.329l0.007,0.328l0.009,0.328l0.012,0.328l0.014,0.327l0.017,0.327l0.02,0.327l0.023,0.325l0.025,0.325l0.028,0.323l0.03,0.323l0.033,0.322l0.036,0.32l0.037,0.318l0.041,0.317l0.043,0.316l0.045,0.314l0.047,0.312l0.05,0.31l0.052,0.307l0.055,0.306l0.057,0.303l0.059,0.301l0.061,0.299l0.063,0.295l0.066,0.293l0.068,0.29l0.069,0.288l0.072,0.284l0.074,0.281l0.076,0.277l0.078,0.274l0.08,0.271l0.081,0.267l0.084,0.263l0.085,0.259l0.044,0.128l0.044,0.128l0.044,0.126l0.045,0.125l0.045,0.124l0.046,0.123l0.046,0.122l0.047,0.121l0.102,0.261l0.104,0.259l0.106,0.259l0.107,0.257l0.108,0.255l0.11,0.255l0.111,0.253l0.112,0.251l0.114,0.251l0.116,0.249l0.117,0.248l0.119,0.246l0.119,0.245l0.122,0.244l0.123,0.242l0.124,0.241l0.126,0.24l0.127,0.238l0.129,0.237l0.13,0.235l0.131,0.234l0.134,0.233l0.134,0.232l0.136,0.23l0.138,0.228l0.139,0.227l0.14,0.226l0.142,0.224l0.144,0.223l0.145,0.222l0.146,0.22l0.148,0.219l0.149,0.217l0.151,0.216l0.153,0.215l0.153,0.213l0.156,0.211l0.157,0.211l0.158,0.208l0.16,0.208l0.161,0.205l0.163,0.205l0.164,0.203l0.166,0.201l0.168,0.2l0.168,0.199l0.171,0.197l0.172,0.195l0.173,0.194l0.175,0.193l0.176,0.191l0.178,0.19l0.18,0.188l0.181,0.187l0.182,0.185l0.184,0.183l0.186,0.183l0.187,0.18l0.189,0.179l0.19,0.178l0.191,0.176l0.194,0.174l0.194,0.173l0.196,0.172l0.198,0.17l0.2,0.168l0.2,0.167l0.203,0.165l0.204,0.164l0.205,0.162l0.207,0.161l0.209,0.159l0.21,0.157l0.212,0.156l0.213,0.154l0.215,0.153l0.216,0.151l0.218,0.15l0.219,0.148l0.221,0.146l0.223,0.145l0.224,0.143l0.225,0.142l0.228,0.14l0.228,0.138l0.231,0.137l0.232,0.135l0.233,0.133l0.235,0.132l0.237,0.13l0.238,0.129l0.24,0.127l0.241,0.125l0.243,0.124l0.245,0.122l0.246,0.12l0.248,0.119l0.249,0.117l0.251,0.115l0.252,0.114l0.254,0.112l0.256,0.11l0.257,0.109l0.259,0.107l0.26,0.105l0.262,0.104l0.264,0.102l0.265,0.1l0.267,0.098l0.268,0.097l0.27,0.095l0.272,0.094l0.273,0.091l0.275,0.09l0.276,0.088l0.278,0.087l0.28,0.084l0.281,0.083l0.283,0.082l0.284,0.079l0.286,0.078l0.288,0.076l0.289,0.074l0.291,0.073l0.293,0.07l0.294,0.069l0.296,0.068l0.298,0.065l0.191,0.04l0.194,0.039l0.196,0.037l0.197,0.036l0.199,0.033l0.201,0.033l0.203,0.03l0.204,0.03l0.206,0.027l0.208,0.027l0.209,0.025l0.211,0.023l0.212,0.022l0.214,0.021l0.215,0.02l0.216,0.018l0.217,0.017l0.219,0.017l0.22,0.014l0.221,0.014l0.222,0.013l0.223,0.011l0.224,0.011l0.225,0.01l0.226,0.008l0.227,0.008l0.228,0.007l0.228,0.006l0.229,0.006l0.23,0.004l0.462,0.007l0.463,0.004l0.466,0.001l0.467,0l0.468,-0.003l0.468,-0.004l0.469,-0.006l0.47,-0.007l0.468,-0.008l0.935,-0.018l0.929,-0.017l0.92,-0.017l0.456,-0.007l0.452,-0.006l4.03,-14.855l0.075,-0.253l0.071,-0.252l0.034,-0.125l0.033,-0.124l0.033,-0.124l0.031,-0.123l0.03,-0.123l0.029,-0.122l0.028,-0.122l0.027,-0.121l0.025,-0.12l0.024,-0.12l0.022,-0.119l0.022,-0.119l0.019,-0.117l0.019,-0.118l0.017,-0.116l0.015,-0.116l0.013,-0.115l0.012,-0.115l0.01,-0.113l0.009,-0.114l0.007,-0.112l0.004,-0.112l0.003,-0.11l0.001,-0.111l-0.001,-0.109l-0.002,-0.109l-0.005,-0.107l-0.008,-0.107l-0.009,-0.107l-0.011,-0.105l-0.014,-0.105l-0.016,-0.104l-0.018,-0.103l-0.02,-0.102l-0.023,-0.101l-0.026,-0.101l-0.028,-0.099l-0.03,-0.099l-0.033,-0.098l-0.035,-0.097l-0.039,-0.096l-0.041,-0.095l-0.043,-0.094l-0.047,-0.093l-0.049,-0.093l-0.052,-0.091l-0.027,-0.045l-0.028,-0.046l-0.029,-0.044l-0.029,-0.045l-0.03,-0.044l-0.031,-0.044l-0.032,-0.044l-0.032,-0.044l-0.033,-0.043l-0.034,-0.043l-0.035,-0.043l-0.036,-0.043l-0.036,-0.042l-0.037,-0.042l-0.038,-0.042l-0.039,-0.042l-0.039,-0.041l-0.041,-0.041l-0.041,-0.041l-0.042,-0.041l-0.043,-0.04l-0.044,-0.04l-0.044,-0.04l-0.046,-0.039l-0.046,-0.039l-0.047,-0.039l-0.048,-0.039l-0.049,-0.038l-0.056,-0.043l-0.057,-0.041l-0.058,-0.041l-0.059,-0.038l-0.06,-0.038l-0.061,-0.037l-0.062,-0.035l-0.063,-0.034l-0.064,-0.034l-0.065,-0.032l-0.065,-0.031l-0.066,-0.029l-0.068,-0.029l-0.068,-0.028l-0.069,-0.027l-0.069,-0.025l-0.071,-0.025l-0.071,-0.024l-0.072,-0.023l-0.073,-0.022l-0.074,-0.02l-0.074,-0.02l-0.075,-0.019l-0.076,-0.019l-0.077,-0.017l-0.077,-0.016l-0.078,-0.016l-0.079,-0.015l-0.079,-0.014l-0.08,-0.013l-0.08,-0.013l-0.082,-0.011l-0.082,-0.011l-0.082,-0.011l-0.083,-0.009l-0.084,-0.009l-0.169,-0.016l-0.171,-0.013l-0.173,-0.01l-0.175,-0.009l-0.177,-0.006l-0.179,-0.004l-0.181,-0.002l-0.182,-0.001l-0.184,0.002l-0.185,0.003l-0.187,0.004l-0.188,0.005l-0.189,0.007l-0.19,0.008l-0.19,0.009l-0.192,0.009l-0.386,0.021l-0.388,0.022l-0.39,0.023l-0.39,0.022l-0.391,0.02l-0.195,0.01l-0.195,0.009l-0.194,0.007l-0.194,0.007l-0.193,0.006l-0.193,0.004l-0.192,0.003l-0.191,0.001l-0.19,0l-0.189,-0.002l-0.188,-0.004l-0.187,-0.006l-0.185,-0.008l-0.184,-0.011l-0.182,-0.013l-0.181,-0.015l-0.179,-0.019l-0.089,-0.01l-0.089,-0.011l-0.088,-0.011l-0.087,-0.013l-0.087,-0.013l-0.087,-0.014l-0.128,-0.021l-0.126,-0.023l-0.127,-0.023l-0.125,-0.023l-0.125,-0.024l-0.123,-0.025l-0.123,-0.026l-0.122,-0.026l-0.122,-0.027l-0.12,-0.027l-0.12,-0.029l-0.119,-0.029l-0.118,-0.029l-0.118,-0.03l-0.117,-0.031l-0.115,-0.032l-0.116,-0.032l-0.114,-0.033l-0.113,-0.033l-0.113,-0.034l-0.112,-0.035l-0.111,-0.036l-0.111,-0.036l-0.11,-0.037l-0.108,-0.037l-0.109,-0.038l-0.107,-0.039l-0.107,-0.04l-0.105,-0.04l-0.105,-0.041l-0.105,-0.042l-0.103,-0.042l-0.103,-0.043l-0.102,-0.044l-0.101,-0.044l-0.101,-0.045l-0.1,-0.046l-0.099,-0.046l-0.098,-0.047l-0.097,-0.048l-0.097,-0.049l-0.096,-0.049l-0.095,-0.05l-0.095,-0.05l-0.093,-0.052l-0.093,-0.052l-0.093,-0.052l-0.091,-0.054l-0.091,-0.054l-0.09,-0.055l-0.089,-0.055l-0.089,-0.056l-0.088,-0.057l-0.087,-0.058l-0.086,-0.058l-0.086,-0.059l-0.085,-0.06l-0.084,-0.06l-0.083,-0.061l-0.083,-0.062l-0.082,-0.063l-0.081,-0.063l-0.081,-0.064l-0.079,-0.065l-0.08,-0.065l-0.078,-0.066l-0.078,-0.067l-0.077,-0.068l-0.076,-0.068l-0.075,-0.069l-0.075,-0.07l-0.074,-0.07l-0.073,-0.072l-0.073,-0.071l-0.072,-0.073l-0.071,-0.074l-0.071,-0.074l-0.07,-0.075l-0.069,-0.075l-0.068,-0.076l-0.068,-0.077l-0.067,-0.078l-0.066,-0.079l-0.066,-0.079l-0.065,-0.08l-0.064,-0.081l-0.064,-0.081l-0.063,-0.083l-0.062,-0.083l-0.061,-0.083l-0.061,-0.085l-0.06,-0.085l-0.059,-0.086l-0.059,-0.087l-0.058,-0.087l-0.058,-0.088l-0.056,-0.089l-0.056,-0.09l-0.056,-0.09l-0.054,-0.092l-0.054,-0.092l-0.054,-0.092l-0.052,-0.094l-0.052,-0.094l-0.051,-0.095l-0.051,-0.096l-0.05,-0.096l-0.049,-0.098l-0.049,-0.098l-0.048,-0.099l-0.047,-0.099l-0.047,-0.1l-0.046,-0.102l-0.045,-0.101l-0.045,-0.103l-0.044,-0.104l-0.043,-0.104l-0.043,-0.105l-0.042,-0.106l-0.041,-0.106l-0.041,-0.107l-0.04,-0.109l-0.039,-0.108l-0.039,-0.11l-0.038,-0.11l-0.038,-0.112l-0.036,-0.112l-0.037,-0.112l-0.027,-0.088l-0.027,-0.088l-0.026,-0.09l-0.026,-0.09l-0.025,-0.091l-0.025,-0.093l-0.024,-0.093l-0.023,-0.094l-0.023,-0.096l-0.023,-0.096l-0.021,-0.096l-0.022,-0.098l-0.02,-0.098l-0.02,-0.1l-0.019,-0.099l-0.019,-0.101l-0.018,-0.101l-0.017,-0.102l-0.017,-0.103l-0.016,-0.103l-0.015,-0.103l-0.015,-0.104l-0.014,-0.105l-0.013,-0.105l-0.012,-0.106l-0.012,-0.106l-0.01,-0.106l-0.01,-0.107l-0.01,-0.107l-0.008,-0.107l-0.008,-0.108l-0.007,-0.107l-0.006,-0.108l-0.005,-0.109l-0.004,-0.108l-0.003,-0.109l-0.003,-0.108l-0.002,-0.109l0,-0.109l0,-0.109l0.001,-0.109l0.002,-0.109l0.003,-0.108l0.004,-0.109l0.004,-0.109l0.006,-0.108l0.007,-0.108l0.008,-0.108l0.009,-0.108l0.009,-0.108l0.011,-0.107l0.012,-0.107l0.013,-0.107l0.014,-0.106l0.015,-0.106l0.016,-0.106l0.017,-0.105l0.019,-0.105l0.019,-0.104l0.021,-0.104l0.021,-0.103l0.023,-0.102l0.024,-0.102l0.025,-0.101l0.032,-0.121l0.032,-0.121l0.033,-0.119l0.034,-0.119l0.035,-0.118l0.036,-0.118l0.036,-0.116l0.038,-0.116l0.038,-0.115l0.039,-0.114l0.04,-0.114l0.041,-0.113l0.041,-0.112l0.043,-0.111l0.043,-0.111l0.045,-0.109l0.045,-0.109l0.045,-0.108l0.047,-0.108l0.048,-0.107l0.048,-0.106l0.049,-0.105l0.05,-0.104l0.051,-0.104l0.052,-0.103l0.053,-0.102l0.053,-0.101l0.054,-0.101l0.055,-0.099l0.056,-0.099l0.057,-0.099l0.058,-0.097l0.058,-0.097l0.059,-0.096l0.06,-0.095l0.061,-0.094l0.062,-0.094l0.062,-0.093l0.064,-0.092l0.064,-0.092l0.065,-0.09l0.065,-0.09l0.067,-0.089l0.067,-0.088l0.069,-0.088l0.069,-0.086l0.07,-0.086l0.07,-0.086l0.072,-0.084l0.072,-0.084l0.073,-0.083l0.074,-0.082l0.074,-0.081l0.076,-0.081l0.076,-0.079l0.077,-0.079l0.078,-0.079l0.079,-0.077l0.079,-0.077l0.08,-0.076l0.081,-0.075l0.082,-0.074l0.083,-0.074l0.083,-0.072l0.084,-0.072l0.085,-0.072l0.086,-0.07l0.087,-0.07l0.087,-0.069l0.088,-0.068l0.089,-0.067l0.09,-0.067l0.09,-0.066l0.092,-0.065l0.092,-0.064l0.093,-0.063l0.093,-0.063l0.094,-0.062l0.096,-0.061l0.096,-0.06l0.096,-0.06l0.098,-0.058l0.098,-0.058l0.099,-0.058l0.1,-0.056l0.1,-0.056l0.101,-0.054l0.102,-0.055l0.103,-0.053l0.104,-0.052l0.104,-0.052l0.105,-0.051l0.106,-0.05l0.107,-0.049l0.107,-0.049l0.108,-0.048l0.109,-0.047l0.11,-0.046l0.11,-0.045l0.111,-0.045l0.112,-0.044l0.113,-0.043l0.113,-0.042l0.114,-0.041l0.115,-0.041l0.116,-0.04l0.116,-0.039l0.117,-0.038l0.118,-0.038l0.118,-0.037l0.12,-0.036l0.12,-0.035l0.121,-0.034l0.121,-0.034l0.122,-0.032l0.123,-0.032l0.124,-0.031l0.124,-0.031l0.126,-0.029l0.125,-0.029l0.127,-0.028l0.127,-0.027l0.128,-0.027l0.129,-0.025l0.13,-0.025l0.13,-0.024l0.131,-0.023l0.132,-0.023l3.445,0l0.208,0.001l0.21,0.001l0.427,0.005l0.433,0.008l0.441,0.01l0.446,0.012l0.452,0.013l0.916,0.028l0.463,0.014l0.464,0.013l0.466,0.012l0.467,0.011l0.466,0.008l0.465,0.006l0.232,0.002l0.231,0.001l0.23,0l0.23,-0.001l0.229,-0.002l0.228,-0.003l0.227,-0.005l0.226,-0.005l0.224,-0.007l0.224,-0.008l0.221,-0.009l0.22,-0.011l0.219,-0.012l0.217,-0.014l0.215,-0.016l0.213,-0.017l0.21,-0.019l0.209,-0.021l0.207,-0.023l0.204,-0.024l0.202,-0.027l0.199,-0.029l0.196,-0.031l0.194,-0.033l0.191,-0.035l0.188,-0.037l0.093,-0.02l0.092,-0.02l0.092,-0.021l0.09,-0.022l0.09,-0.022l0.089,-0.022l0.088,-0.024l0.087,-0.024l0.087,-0.025l0.085,-0.025l0.085,-0.026l0.084,-0.027l0.083,-0.027l0.082,-0.028l0.081,-0.029l0.08,-0.029l0.079,-0.03l0.078,-0.031l0.077,-0.032l0.076,-0.032l0.108,-0.048l0.107,-0.048l0.105,-0.048l0.104,-0.049l0.102,-0.05l0.101,-0.051l0.099,-0.051l0.098,-0.051l0.096,-0.053l0.095,-0.052l0.093,-0.054l0.092,-0.054l0.091,-0.055l0.089,-0.055l0.088,-0.056l0.086,-0.056l0.086,-0.057l0.084,-0.058l0.082,-0.058l0.082,-0.059l0.08,-0.059l0.079,-0.06l0.077,-0.06l0.077,-0.062l0.075,-0.061l0.074,-0.063l0.073,-0.063l0.072,-0.063l0.071,-0.064l0.069,-0.065l0.069,-0.065l0.067,-0.066l0.066,-0.066l0.065,-0.067l0.065,-0.068l0.063,-0.068l0.062,-0.069l0.061,-0.069l0.06,-0.07l0.059,-0.07l0.059,-0.072l0.057,-0.071l0.056,-0.072l0.056,-0.073l0.055,-0.074l0.053,-0.074l0.053,-0.074l0.052,-0.075l0.052,-0.076l0.05,-0.076l0.05,-0.077l0.048,-0.077l0.049,-0.078l0.047,-0.079l0.047,-0.079l0.046,-0.08l0.045,-0.08l0.044,-0.081l0.044,-0.081l0.043,-0.082l0.043,-0.082l0.042,-0.084l0.041,-0.083l0.041,-0.084l0.08,-0.17l0.078,-0.173l0.075,-0.174l0.074,-0.177l0.072,-0.179l0.07,-0.182l0.069,-0.183l0.067,-0.186l0.066,-0.188l0.065,-0.19l0.064,-0.193l0.063,-0.194l0.062,-0.197l0.061,-0.199l0.061,-0.201l0.06,-0.204l0.06,-0.205l0.06,-0.208l0.12,-0.422l0.12,-0.43l0.123,-0.44l0.125,-0.447l0.129,-0.456l0.133,-0.465l0.069,-0.236l0.07,-0.237l2.92,-10.995l0,-0.059l-27.215,0Zm68.616,-22.602l-0.402,0.002l-0.403,0.003l-0.807,0.007l-0.807,0.007l-0.804,0.006l-0.4,0.001l-0.4,0.001l-19.506,0l-1.752,0.351l-0.086,0.027l-0.084,0.028l-0.085,0.028l-0.084,0.03l-0.085,0.03l-0.084,0.031l-0.083,0.032l-0.084,0.032l-0.083,0.034l-0.082,0.034l-0.083,0.035l-0.082,0.035l-0.082,0.036l-0.081,0.037l-0.081,0.038l-0.081,0.038l-0.08,0.039l-0.08,0.04l-0.08,0.041l-0.079,0.041l-0.079,0.042l-0.078,0.042l-0.078,0.043l-0.077,0.044l-0.077,0.044l-0.076,0.045l-0.076,0.046l-0.076,0.046l-0.075,0.047l-0.074,0.047l-0.074,0.048l-0.073,0.049l-0.073,0.049l-0.072,0.05l-0.072,0.05l-0.071,0.051l-0.07,0.051l-0.07,0.052l-0.069,0.052l-0.069,0.053l-0.068,0.054l-0.067,0.054l-0.067,0.054l-0.066,0.055l-0.065,0.055l-0.064,0.056l-0.064,0.057l-0.063,0.056l-0.063,0.057l-0.061,0.058l-0.061,0.058l-0.06,0.059l-0.06,0.059l-0.058,0.059l-0.058,0.059l-0.057,0.061l-0.056,0.06l-0.056,0.061l-0.054,0.061l-0.054,0.062l-0.053,0.061l-0.052,0.063l-0.051,0.062l-0.05,0.063l-0.079,0.102l-0.077,0.103l-0.075,0.105l-0.074,0.105l-0.072,0.107l-0.07,0.108l-0.069,0.108l-0.067,0.11l-0.065,0.111l-0.064,0.112l-0.063,0.113l-0.061,0.115l-0.059,0.115l-0.059,0.116l-0.056,0.117l-0.056,0.118l-0.055,0.119l-0.053,0.119l-0.052,0.121l-0.051,0.122l-0.05,0.122l-0.049,0.123l-0.048,0.124l-0.047,0.125l-0.046,0.126l-0.045,0.126l-0.045,0.127l-0.043,0.128l-0.043,0.129l-0.042,0.129l-0.042,0.13l-0.041,0.131l-0.08,0.263l-0.078,0.266l-0.076,0.267l-0.075,0.27l-0.074,0.272l-0.073,0.274l-0.146,0.553l-0.146,0.558l-0.074,0.281l-0.076,0.283l-0.077,0.282l-0.079,0.284l-0.081,0.284l-0.084,0.285l-3.679,13.802l-17.755,66.439l10.221,0l0.379,0.001l0.38,0.001l0.757,0.005l0.753,0.005l0.374,0.002l0.373,0l0.369,-0.001l0.368,-0.003l0.364,-0.005l0.362,-0.008l0.179,-0.006l0.179,-0.005l0.177,-0.007l0.177,-0.008l0.175,-0.008l0.175,-0.01l0.173,-0.011l0.172,-0.011l0.171,-0.013l0.17,-0.014l0.169,-0.015l0.167,-0.017l0.166,-0.017l0.165,-0.019l0.163,-0.021l0.162,-0.022l0.16,-0.023l0.159,-0.025l0.157,-0.027l0.156,-0.028l0.154,-0.03l0.152,-0.031l0.151,-0.034l0.148,-0.035l0.148,-0.037l0.145,-0.039l0.143,-0.041l0.142,-0.042l0.14,-0.045l0.137,-0.047l0.136,-0.05l0.133,-0.051l0.132,-0.053l0.129,-0.056l0.064,-0.029l0.063,-0.029l0.063,-0.03l0.063,-0.031l0.061,-0.031l0.061,-0.032l0.061,-0.032l0.06,-0.033l0.059,-0.034l0.059,-0.034l0.058,-0.035l0.058,-0.036l0.119,-0.076l0.118,-0.078l0.116,-0.08l0.114,-0.081l0.113,-0.083l0.111,-0.085l0.11,-0.087l0.108,-0.088l0.106,-0.09l0.105,-0.092l0.103,-0.093l0.102,-0.095l0.1,-0.097l0.099,-0.098l0.098,-0.099l0.096,-0.102l0.094,-0.102l0.093,-0.104l0.092,-0.106l0.09,-0.107l0.089,-0.109l0.088,-0.109l0.086,-0.112l0.085,-0.112l0.084,-0.114l0.083,-0.116l0.081,-0.117l0.08,-0.118l0.079,-0.119l0.077,-0.12l0.077,-0.122l0.075,-0.123l0.074,-0.124l0.073,-0.126l0.072,-0.126l0.071,-0.128l0.07,-0.129l0.069,-0.13l0.067,-0.131l0.067,-0.132l0.065,-0.133l0.065,-0.134l0.064,-0.135l0.062,-0.136l0.062,-0.137l0.061,-0.138l0.06,-0.139l0.059,-0.14l0.058,-0.141l0.058,-0.142l0.056,-0.142l0.056,-0.144l0.055,-0.144l0.054,-0.145l0.053,-0.146l0.053,-0.146l0.052,-0.147l0.051,-0.148l0.051,-0.149l0.049,-0.149l0.05,-0.15l0.048,-0.151l0.048,-0.151l0.047,-0.152l0.093,-0.305l0.091,-0.308l0.088,-0.309l0.087,-0.312l0.085,-0.313l0.083,-0.315l0.082,-0.316l0.08,-0.317l0.079,-0.318l0.078,-0.32l0.077,-0.32l0.076,-0.321l0.15,-0.642l0.149,-0.644l0.148,-0.642l0.149,-0.641l0.075,-0.32l0.076,-0.318l0.076,-0.317l0.077,-0.317l0.078,-0.314l0.079,-0.313l0.081,-0.312l0.082,-0.309l0.083,-0.308l0.085,-0.305l0.087,-0.303l0.089,-0.301l13.491,-50.238l0.543,-0.002l0.539,-0.004l0.533,-0.006l0.529,-0.006l0.524,-0.008l0.519,-0.009l1.023,-0.018l1.002,-0.018l0.494,-0.008l0.489,-0.008l0.483,-0.007l0.478,-0.005l0.473,-0.004l0.467,-0.002l0.463,0l0.457,0.003l0.451,0.005l0.224,0.003l0.222,0.005l0.222,0.005l0.219,0.006l0.219,0.006l0.217,0.008l0.215,0.008l0.214,0.01l0.213,0.01l0.212,0.011l0.21,0.013l0.208,0.013l0.208,0.015l0.205,0.016l0.205,0.016l0.203,0.018l0.201,0.02l0.201,0.02l0.198,0.022l0.198,0.023l0.196,0.025l0.194,0.025l0.193,0.028l0.192,0.028l0.19,0.031l0.189,0.031l0.187,0.033l0.186,0.035l0.184,0.037l0.183,0.038l0.181,0.039l0.18,0.042l0.179,0.043l0.177,0.045l0.175,0.047l0.174,0.048l0.173,0.051l0.171,0.052l0.169,0.054l0.168,0.057l0.167,0.058l0.164,0.06l0.164,0.062l0.162,0.065l0.16,0.066l0.159,0.069l0.157,0.071l0.156,0.073l0.154,0.075l0.153,0.078l0.151,0.08l0.15,0.082l0.148,0.084l0.146,0.087l0.145,0.09l0.144,0.092l0.141,0.094l0.071,0.048l0.069,0.049l0.07,0.05l0.069,0.05l0.069,0.051l0.068,0.051l0.068,0.052l0.067,0.053l0.068,0.053l0.066,0.054l0.067,0.055l0.065,0.055l0.066,0.057l0.065,0.056l0.065,0.058l0.064,0.058l0.064,0.059l0.063,0.059l0.064,0.061l0.062,0.061l0.063,0.061l0.061,0.063l0.062,0.063l0.061,0.064l0.061,0.065l0.06,0.065l0.06,0.066l0.059,0.067l0.059,0.067l0.059,0.069l0.058,0.069l0.058,0.07l0.057,0.07l0.057,0.072l0.057,0.072l0.056,0.073l0.056,0.073l0.055,0.075l0.055,0.075l0.054,0.076l0.054,0.077l0.054,0.078l0.053,0.078l0.053,0.079l0.053,0.08l0.052,0.081l0.051,0.082l0.051,0.082l0.051,0.084l0.05,0.084l0.05,0.085l0.05,0.086l0.049,0.087l0.049,0.087l0.048,0.089l0.048,0.089l0.047,0.09l0.047,0.091l0.046,0.092l0.047,0.092l0.045,0.094l0.046,0.095l0.044,0.095l0.045,0.096l0.044,0.097l0.043,0.098l0.08,0.184l0.079,0.189l0.079,0.195l0.077,0.2l0.077,0.205l0.038,0.104l0.037,0.106l0.037,0.106l0.037,0.108l0.036,0.109l0.035,0.11l0.035,0.111l0.034,0.112l0.034,0.113l0.033,0.114l0.032,0.115l0.032,0.116l0.03,0.117l0.03,0.118l0.029,0.118l0.029,0.12l0.027,0.12l0.026,0.121l0.026,0.122l0.024,0.122l0.023,0.123l0.022,0.124l0.021,0.124l0.02,0.125l0.019,0.126l0.017,0.126l0.016,0.127l0.015,0.127l0.013,0.128l0.012,0.128l0.011,0.129l0.009,0.129l0.008,0.129l0.006,0.13l0.005,0.13l0.003,0.131l0.001,0.13l0,0.131l-0.002,0.132l-0.004,0.131l-0.006,0.132l-0.007,0.131l-0.009,0.132l-0.011,0.132l-0.013,0.132l-0.015,0.132l-0.017,0.133l-0.019,0.132l-0.021,0.132l-0.023,0.132l-0.025,0.132l-0.027,0.132l-0.03,0.131l-0.032,0.132l-0.037,0.144l-0.037,0.144l-0.039,0.143l-0.04,0.143l-0.04,0.143l-0.042,0.141l-0.043,0.141l-0.044,0.141l-0.044,0.139l-0.046,0.139l-0.047,0.138l-0.048,0.138l-0.049,0.136l-0.05,0.135l-0.051,0.135l-0.052,0.134l-0.053,0.132l-0.055,0.132l-0.055,0.13l-0.057,0.13l-0.057,0.128l-0.059,0.127l-0.06,0.126l-0.061,0.125l-0.062,0.123l-0.063,0.122l-0.064,0.12l-0.065,0.12l-0.067,0.117l-0.068,0.117l-0.069,0.114l-0.07,0.114l-0.083,0.13l-0.085,0.129l-0.086,0.128l-0.088,0.127l-0.09,0.125l-0.092,0.124l-0.093,0.122l-0.095,0.121l-0.096,0.12l-0.098,0.118l-0.1,0.117l-0.101,0.115l-0.103,0.114l-0.105,0.113l-0.106,0.111l-0.108,0.109l-0.11,0.109l-0.111,0.106l-0.113,0.106l-0.114,0.104l-0.116,0.102l-0.117,0.101l-0.119,0.099l-0.121,0.098l-0.122,0.097l-0.124,0.095l-0.125,0.093l-0.127,0.092l-0.129,0.091l-0.13,0.089l-0.131,0.087l-0.134,0.086l-0.134,0.084l-0.137,0.083l-0.137,0.081l-0.14,0.08l-0.141,0.078l-0.142,0.077l-0.144,0.075l-0.145,0.073l-0.147,0.072l-0.149,0.07l-0.15,0.069l-0.151,0.067l-0.153,0.065l-0.154,0.064l-0.156,0.062l-0.158,0.06l-0.159,0.059l-0.16,0.058l-0.162,0.055l-0.163,0.054l-0.165,0.052l-0.166,0.051l-0.168,0.049l-0.169,0.047l-0.17,0.046l-0.172,0.044l-0.174,0.042l-0.175,0.04l-0.176,0.039l-0.178,0.037l-0.179,0.036l-0.18,0.033l-3.154,0.059l-0.343,-0.001l-0.343,-0.002l-0.688,-0.005l-0.687,-0.005l-0.342,-0.002l-0.341,-0.001l-0.339,0l-0.338,0.002l-0.335,0.004l-0.333,0.006l-0.331,0.008l-0.164,0.006l-0.163,0.006l-0.162,0.007l-0.162,0.008l-0.16,0.009l-0.16,0.01l-0.158,0.01l-0.158,0.012l-0.156,0.013l-0.156,0.014l-0.154,0.015l-0.153,0.017l-0.151,0.017l-0.151,0.019l-0.149,0.02l-0.148,0.022l-0.146,0.023l-0.145,0.024l-0.144,0.026l-0.142,0.027l-0.14,0.029l-0.139,0.031l-0.137,0.032l-0.135,0.034l-0.134,0.035l-0.132,0.038l-0.131,0.039l-0.128,0.041l-0.127,0.043l-0.124,0.045l-0.123,0.047l-0.121,0.049l-0.118,0.051l-0.117,0.053l-0.115,0.056l-0.112,0.057l-0.055,0.03l-0.055,0.03l-0.055,0.031l-0.053,0.031l-0.141,0.084l-0.139,0.087l-0.138,0.088l-0.138,0.091l-0.136,0.092l-0.134,0.095l-0.134,0.096l-0.132,0.099l-0.131,0.1l-0.129,0.102l-0.128,0.104l-0.126,0.106l-0.125,0.108l-0.123,0.11l-0.122,0.111l-0.12,0.114l-0.118,0.115l-0.116,0.117l-0.114,0.118l-0.113,0.121l-0.11,0.121l-0.109,0.124l-0.106,0.125l-0.104,0.127l-0.102,0.129l-0.1,0.13l-0.098,0.131l-0.095,0.133l-0.093,0.135l-0.09,0.136l-0.089,0.138l-0.085,0.139l-0.045,0.075l-0.043,0.076l-0.043,0.076l-0.041,0.078l-0.041,0.078l-0.04,0.078l-0.039,0.079l-0.038,0.08l-0.037,0.081l-0.036,0.081l-0.036,0.082l-0.034,0.082l-0.034,0.083l-0.034,0.083l-0.032,0.084l-0.032,0.084l-0.031,0.085l-0.031,0.086l-0.059,0.172l-0.058,0.174l-0.055,0.176l-0.053,0.177l-0.052,0.179l-0.05,0.18l-0.049,0.182l-0.048,0.182l-0.047,0.184l-0.046,0.185l-0.046,0.185l-0.182,0.747l-0.093,0.376l-0.048,0.188l-0.049,0.187l-0.05,0.188l-0.051,0.187l-0.053,0.187l-0.055,0.186l-3.27,12.106l0,0.059l0.52,0l0.524,0.002l0.526,0.003l0.53,0.004l0.533,0.005l0.535,0.007l1.078,0.015l1.086,0.017l1.093,0.018l1.098,0.02l1.103,0.018l1.106,0.017l0.553,0.008l0.553,0.007l0.554,0.006l0.553,0.005l0.553,0.004l0.552,0.003l0.551,0.001l0.55,0l0.55,-0.001l0.548,-0.003l0.546,-0.006l0.545,-0.007l0.543,-0.009l0.541,-0.011l0.539,-0.013l0.536,-0.016l0.534,-0.019l0.531,-0.021l0.528,-0.024l0.263,-0.013l0.262,-0.014l0.262,-0.014l0.26,-0.016l0.26,-0.016l0.258,-0.017l0.258,-0.017l0.257,-0.019l0.256,-0.019l0.255,-0.02l0.254,-0.021l0.252,-0.023l0.252,-0.022l0.251,-0.024l0.25,-0.025l0.248,-0.026l0.248,-0.026l0.246,-0.028l0.245,-0.029l0.244,-0.029l0.243,-0.031l0.241,-0.032l0.24,-0.033l0.239,-0.033l0.238,-0.035l0.236,-0.036l0.235,-0.038l0.233,-0.038l0.232,-0.039l0.231,-0.041l0.229,-0.042l0.228,-0.043l0.226,-0.044l0.224,-0.045l0.224,-0.047l0.221,-0.048l0.22,-0.049l0.219,-0.05l0.216,-0.052l0.215,-0.053l0.214,-0.054l0.212,-0.056l0.21,-0.057l0.208,-0.059l0.206,-0.059l0.205,-0.062l0.203,-0.062l0.201,-0.064l0.199,-0.066l0.198,-0.067l0.195,-0.068l0.193,-0.07l0.192,-0.072l0.19,-0.073l0.247,-0.097l0.246,-0.099l0.244,-0.1l0.243,-0.102l0.242,-0.102l0.241,-0.104l0.239,-0.106l0.237,-0.106l0.237,-0.108l0.235,-0.109l0.233,-0.11l0.232,-0.112l0.231,-0.113l0.23,-0.114l0.228,-0.116l0.227,-0.117l0.225,-0.118l0.224,-0.12l0.223,-0.12l0.222,-0.122l0.22,-0.124l0.218,-0.124l0.218,-0.126l0.216,-0.128l0.214,-0.128l0.214,-0.13l0.212,-0.131l0.21,-0.132l0.209,-0.134l0.208,-0.135l0.207,-0.137l0.205,-0.137l0.204,-0.139l0.202,-0.14l0.202,-0.142l0.199,-0.143l0.199,-0.144l0.197,-0.145l0.196,-0.147l0.194,-0.148l0.194,-0.15l0.191,-0.151l0.191,-0.152l0.189,-0.153l0.188,-0.155l0.186,-0.156l0.185,-0.157l0.184,-0.158l0.183,-0.16l0.181,-0.162l0.18,-0.162l0.178,-0.164l0.177,-0.165l0.176,-0.167l0.175,-0.168l0.173,-0.169l0.172,-0.17l0.17,-0.172l0.169,-0.173l0.168,-0.175l0.167,-0.175l0.165,-0.178l0.164,-0.178l0.162,-0.18l0.162,-0.181l0.16,-0.182l0.158,-0.184l0.158,-0.185l0.156,-0.187l0.154,-0.187l0.154,-0.189l0.152,-0.191l0.15,-0.192l0.15,-0.193l0.148,-0.194l0.147,-0.196l0.145,-0.197l0.144,-0.198l0.143,-0.2l0.142,-0.201l0.14,-0.203l0.139,-0.203l0.138,-0.206l0.136,-0.206l0.135,-0.208l0.134,-0.209l0.132,-0.211l0.131,-0.211l0.13,-0.214l0.128,-0.214l0.128,-0.216l0.126,-0.217l0.124,-0.219l0.123,-0.22l0.122,-0.221l0.121,-0.223l0.12,-0.224l0.118,-0.225l0.117,-0.227l0.115,-0.228l0.114,-0.229l0.113,-0.231l0.112,-0.232l0.11,-0.234l0.109,-0.235l0.108,-0.236l0.107,-0.237l0.105,-0.239l0.104,-0.24l0.103,-0.242l0.101,-0.243l0.1,-0.245l0.099,-0.245l0.097,-0.247l0.096,-0.249l0.095,-0.25l0.094,-0.251l0.092,-0.252l0.092,-0.254l0.089,-0.256l0.089,-0.256l0.087,-0.258l0.086,-0.26l0.085,-0.261l0.083,-0.262l0.082,-0.263l0.081,-0.265l0.08,-0.267l0.106,-0.362l0.106,-0.371l0.106,-0.381l0.106,-0.389l0.053,-0.198l0.052,-0.2l0.052,-0.201l0.051,-0.204l0.051,-0.206l0.051,-0.208l0.05,-0.209l0.049,-0.211l0.049,-0.213l0.048,-0.215l0.047,-0.216l0.047,-0.218l0.045,-0.219l0.045,-0.221l0.044,-0.222l0.042,-0.224l0.042,-0.225l0.04,-0.226l0.04,-0.228l0.038,-0.228l0.036,-0.23l0.036,-0.231l0.034,-0.232l0.032,-0.234l0.032,-0.234l0.029,-0.235l0.028,-0.236l0.026,-0.237l0.025,-0.237l0.022,-0.238l0.021,-0.24l0.02,-0.239l0.017,-0.24l0.015,-0.241l0.013,-0.242l0.011,-0.241l0.009,-0.243l0.007,-0.242l0.004,-0.243l0.003,-0.244l-0.001,-0.243l-0.002,-0.244l-0.005,-0.243l-0.008,-0.244l-0.01,-0.244l-0.012,-0.244l-0.016,-0.244l-0.018,-0.244l-0.02,-0.243l-0.024,-0.244l-0.027,-0.243l-0.029,-0.243l-0.016,-0.122l-0.016,-0.121l-0.018,-0.121l-0.018,-0.121l-0.019,-0.121l-0.019,-0.121l-0.021,-0.121l-0.021,-0.12l-0.071,-0.393l-0.071,-0.39l-0.071,-0.387l-0.073,-0.384l-0.074,-0.381l-0.075,-0.378l-0.078,-0.376l-0.079,-0.374l-0.041,-0.186l-0.041,-0.185l-0.042,-0.184l-0.043,-0.184l-0.044,-0.184l-0.044,-0.182l-0.045,-0.182l-0.046,-0.182l-0.047,-0.181l-0.048,-0.181l-0.049,-0.18l-0.05,-0.179l-0.051,-0.179l-0.052,-0.178l-0.054,-0.178l-0.054,-0.178l-0.062,-0.196l-0.063,-0.196l-0.065,-0.195l-0.065,-0.195l-0.067,-0.193l-0.067,-0.193l-0.069,-0.192l-0.07,-0.191l-0.071,-0.191l-0.072,-0.189l-0.073,-0.189l-0.074,-0.188l-0.075,-0.187l-0.076,-0.187l-0.077,-0.185l-0.078,-0.185l-0.079,-0.184l-0.08,-0.184l-0.082,-0.182l-0.082,-0.182l-0.083,-0.181l-0.084,-0.18l-0.084,-0.179l-0.086,-0.179l-0.087,-0.178l-0.087,-0.177l-0.089,-0.176l-0.089,-0.175l-0.09,-0.175l-0.091,-0.174l-0.092,-0.173l-0.093,-0.172l-0.094,-0.171l-0.094,-0.171l-0.095,-0.17l-0.096,-0.169l-0.097,-0.168l-0.097,-0.168l-0.098,-0.166l-0.099,-0.166l-0.1,-0.165l-0.1,-0.165l-0.101,-0.163l-0.102,-0.163l-0.103,-0.162l-0.103,-0.161l-0.103,-0.16l-0.105,-0.16l-0.105,-0.158l-0.106,-0.158l-0.106,-0.158l-0.107,-0.156l-0.108,-0.155l-0.108,-0.155l-0.109,-0.154l-0.109,-0.153l-0.11,-0.153l-0.11,-0.151l-0.111,-0.151l-0.112,-0.15l-0.112,-0.149l-0.112,-0.148l-0.113,-0.148l-0.113,-0.147l-0.108,-0.137l-0.108,-0.137l-0.109,-0.137l-0.11,-0.136l-0.11,-0.135l-0.112,-0.135l-0.112,-0.134l-0.112,-0.133l-0.114,-0.133l-0.114,-0.132l-0.115,-0.132l-0.116,-0.131l-0.116,-0.13l-0.118,-0.13l-0.118,-0.129l-0.118,-0.128l-0.12,-0.128l-0.12,-0.127l-0.121,-0.127l-0.122,-0.126l-0.122,-0.125l-0.123,-0.125l-0.124,-0.124l-0.125,-0.124l-0.125,-0.122l-0.126,-0.123l-0.127,-0.121l-0.128,-0.121l-0.128,-0.12l-0.129,-0.12l-0.13,-0.119l-0.131,-0.118l-0.131,-0.118l-0.132,-0.117l-0.133,-0.116l-0.133,-0.116l-0.134,-0.115l-0.135,-0.114l-0.136,-0.113l-0.136,-0.113l-0.137,-0.113l-0.138,-0.111l-0.139,-0.111l-0.139,-0.111l-0.14,-0.109l-0.141,-0.109l-0.142,-0.108l-0.142,-0.108l-0.143,-0.107l-0.143,-0.106l-0.145,-0.105l-0.145,-0.105l-0.146,-0.104l-0.146,-0.104l-0.148,-0.102l-0.148,-0.102l-0.149,-0.102l-0.149,-0.1l-0.15,-0.1l-0.151,-0.099l-0.152,-0.099l-0.152,-0.097l-0.153,-0.097l-0.154,-0.097l-0.154,-0.095l-0.156,-0.095l-0.156,-0.094l-0.156,-0.094l-0.158,-0.092l-0.158,-0.092l-0.159,-0.092l-0.159,-0.09l-0.16,-0.09l-0.161,-0.089l-0.162,-0.088l-0.162,-0.088l-0.163,-0.086l-0.164,-0.086l-0.164,-0.086l-0.166,-0.084l-0.166,-0.084l-0.166,-0.083l-0.168,-0.082l-0.168,-0.082l-0.168,-0.081l-0.17,-0.08l-0.17,-0.079l-0.171,-0.078l-0.171,-0.078l-0.172,-0.077l-0.173,-0.076l-0.174,-0.076l-0.174,-0.074l-0.175,-0.074l-0.176,-0.073l-0.177,-0.072l-0.177,-0.072l-0.178,-0.071l-0.178,-0.07l-0.179,-0.069l-0.18,-0.068l-0.181,-0.068l-0.181,-0.066l-0.182,-0.066l-0.183,-0.066l-0.184,-0.064l-0.184,-0.063l-0.184,-0.063l-0.186,-0.062l-0.186,-0.061l-0.187,-0.061l-0.188,-0.059l-0.188,-0.059l-0.189,-0.058l-0.189,-0.057l-0.191,-0.056l-0.191,-0.055l-0.191,-0.055l-0.193,-0.054l-0.193,-0.053l-0.194,-0.052l-0.194,-0.051l-0.195,-0.051l-0.196,-0.049l-0.197,-0.049l-0.197,-0.048l-0.198,-0.047l-0.198,-0.046l-0.165,-0.037l-0.166,-0.036l-0.168,-0.034l-0.169,-0.033l-0.171,-0.031l-0.172,-0.03l-0.173,-0.028l-0.174,-0.028l-0.176,-0.026l-0.177,-0.025l-0.178,-0.023l-0.179,-0.023l-0.18,-0.021l-0.182,-0.02l-0.182,-0.019l-0.184,-0.018l-0.184,-0.017l-0.186,-0.015l-0.187,-0.015l-0.187,-0.014l-0.188,-0.013l-0.19,-0.012l-0.19,-0.011l-0.191,-0.011l-0.191,-0.009l-0.193,-0.009l-0.193,-0.008l-0.194,-0.007l-0.389,-0.012l-0.392,-0.01l-0.395,-0.007l-0.396,-0.006l-0.398,-0.003l-0.399,-0.002l-0.401,0l-0.402,0.001Z" style="fill:#fff;"/><defs><linearGradient gradientTransform="matrix(1.64801e-14,269.141,-269.141,1.64801e-14,38.4386,141.61)" gradientUnits="userSpaceOnUse" id="_Linear1" x1="0" x2="1" y1="0" y2="0"><stop offset="0" style="stop-color:#cce6ff;stop-opacity:1"/><stop offset="1" style="stop-color:#1d98ff;stop-opacity:1"/></linearGradient><linearGradient gradientTransform="matrix(1.05759e-14,172.718,-172.718,1.05759e-14,72.5125,152.453)" gradientUnits="userSpaceOnUse" id="_Linear2" x1="0" x2="1" y1="0" y2="0"><stop offset="0" style="stop-color:#fff;stop-opacity:1"/><stop offset="1" style="stop-color:#a3d3ff;stop-opacity:1"/></linearGradient><linearGradient gradientTransform="matrix(4.14056e-15,-67.6205,67.6205,4.14056e-15,172.399,300.106)" gradientUnits="userSpaceOnUse" id="_Linear3" x1="0" x2="1" y1="0" y2="0"><stop offset="0" style="stop-color:#cce6ff;stop-opacity:1"/><stop offset="1" style="stop-color:#1d98ff;stop-opacity:1"/></linearGradient></defs></svg>