<?xml version="1.0" ?><svg data-name="Adobe Folder 2020" id="Adobe_Folder_2020" viewBox="0 0 240 210" xmlns="http://www.w3.org/2000/svg"><defs><style>.cls-1{fill:#261300;}.cls-2{fill:#ffe6cc;fill-rule:evenodd;}.cls-3{fill:#ff7c00;}</style></defs><title/><g id="Illustrator"><path class="cls-1" d="M232.5,52.5a15,15,0,0,0-15-15H7.5v150a15,15,0,0,0,15,15h195a15,15,0,0,0,15-15Z"/><path class="cls-2" d="M96.13,137.87l-5.54,21c-.12.58-.35.71-1,.71H79.26c-.69,0-.8-.23-.69-1L98.44,88.92a21.54,21.54,0,0,0,.69-5.83c0-.46.23-.69.58-.69h14.67c.46,0,.69.11.81.69l22.29,75.56c.11.57,0,.92-.58.92H125.35c-.58,0-.92-.13-1-.6l-5.77-21.1Zm19.52-11.37c-2-7.74-6.58-24.7-8.32-32.9h-.11c-1.51,8.2-5.2,22-8.09,32.9Zm31.49-38.91a7.17,7.17,0,0,1,14.33,0c0,4.62-3,7.16-7.28,7.16S147.14,92.21,147.14,87.59Zm.79,15.91c0-.57.23-.8.81-.8h11c.58,0,.81.23.81.8v55.26c0,.58-.12.81-.81.81H148.85c-.69,0-.92-.35-.92-.92Z"/><path class="cls-3" d="M217.5,30H137.63A3.41,3.41,0,0,1,135,28.88L111.75,5.63A18.2,18.2,0,0,0,98.63,0H22.5A22.57,22.57,0,0,0,0,22.5v165A22.57,22.57,0,0,0,22.5,210h195A22.57,22.57,0,0,0,240,187.5V52.5A22.57,22.57,0,0,0,217.5,30Zm15,157.5a15,15,0,0,1-15,15H22.5a15,15,0,0,1-15-15V37.5h210a15,15,0,0,1,15,15Z" data-name="Path 4" id="Path_4"/></g></svg>