<?xml version="1.0" ?><svg data-name="Adobe Folder 2020" id="Adobe_Folder_2020" viewBox="0 0 240 210" xmlns="http://www.w3.org/2000/svg"><defs><style>.cls-1{fill:#2a0034;}.cls-2{fill:#ecd9ff;fill-rule:evenodd;}.cls-3{fill:#ea77ff;}</style></defs><title/><g data-name="Premiere Por" id="Premiere_Por"><path class="cls-1" d="M232.5,52.5a15,15,0,0,0-15-15H7.5v150a15,15,0,0,0,15,15h195a15,15,0,0,0,15-15Z"/><path class="cls-2" d="M78.09,82.53c0-.47.11-.81.69-.81,4.51-.23,11.09-.35,18-.35,19.4,0,27.83,10.63,27.83,24.26,0,17.78-12.87,25.41-28.69,25.41-2.66,0-3.58-.12-5.43-.12v26.9c0,.58-.23.81-.81.81H78.9c-.58,0-.81-.23-.81-.81Zm12.42,37.19c1.62.11,2.89.11,5.66.11,8.2,0,15.87-2.89,15.87-14,0-8.9-5.47-13.4-14.83-13.4-2.77,0-5.43.11-6.7.23Zm44.8-6.36c0-.8,0-2.88-.34-6.81,0-.58.08-.69.54-.92a72.67,72.67,0,0,1,25.59-4.86c.58,0,.81.12.81.7v10.16c0,.58-.18.69-.76.69-4.39-.23-10.81.35-13.24,1.39v44.11c0,.58-.23.81-.81.81h-11c-.58,0-.81-.23-.81-.81Z"/><path class="cls-3" d="M217.5,30H137.63A3.41,3.41,0,0,1,135,28.88L111.75,5.63A18.2,18.2,0,0,0,98.63,0H22.5A22.57,22.57,0,0,0,0,22.5v165A22.57,22.57,0,0,0,22.5,210h195A22.57,22.57,0,0,0,240,187.5V52.5A22.57,22.57,0,0,0,217.5,30Zm15,157.5a15,15,0,0,1-15,15H22.5a15,15,0,0,1-15-15V37.5h210a15,15,0,0,1,15,15Z" data-name="Path 4" id="Path_4"/></g></svg>